<?xml version="1.0" encoding="UTF-8"?>
<svg version="1.1" xmlns="http://www.w3.org/2000/svg" width="618" height="135">
<path d="M0 0 C0.99 0.99 0.99 0.99 2 2 C1.06506561 3.89709988 0.12693704 5.79262578 -0.8125 7.6875 C-1.33457031 8.74324219 -1.85664063 9.79898437 -2.39453125 10.88671875 C-3.8286728 13.66776696 -5.35603378 16.33904567 -7 19 C-6.01 20.485 -6.01 20.485 -5 22 C-5.47050781 22.65226562 -5.94101563 23.30453125 -6.42578125 23.9765625 C-12.55060869 31.77703955 -12.55060869 31.77703955 -15 41 C-13.35 40.34 -11.7 39.68 -10 39 C-10.46671627 44.41390868 -11.24297811 48.20517932 -14 53 C-12.35 52.34 -10.7 51.68 -9 51 C-10.61020009 59.52458872 -13.25173809 65.47494594 -19 72 C-18.34 72 -17.68 72 -17 72 C-17.4793247 76.31392226 -18.7457985 78.16569547 -22 81 C-20.515 81.99 -20.515 81.99 -19 83 C-25.0571554 90.73969856 -30.92566944 95.22286748 -40 99 C-40 99.99 -40 100.98 -40 102 C-51.42466514 106.40640273 -62.57230639 104.67748413 -73.58496094 100.21826172 C-81.26057655 97.2340938 -88.84130619 97.02042226 -97 97 C-94.29545643 94.87042605 -91.62997127 93.20444815 -88.54296875 91.6875 C-87.25676636 91.04143799 -87.25676636 91.04143799 -85.94458008 90.38232422 C-85.03474365 89.92615723 -84.12490723 89.46999023 -83.1875 89 C-76.27156744 85.5115944 -70.25382668 81.82939261 -64.3125 76.875 C-56.56207336 70.53916172 -48.69114253 70.5226585 -39 71 C-42.96 70.34 -46.92 69.68 -51 69 C-49.1219247 65.2438494 -47.75458308 63.8794423 -44.578125 61.35253906 C-42.02191298 59.16172616 -40.01526779 56.55113691 -38 53.875 C-37.57283691 53.31385498 -37.14567383 52.75270996 -36.70556641 52.17456055 C-30.00891514 43.78384214 -30.00891514 43.78384214 -27 34 C-27.36609375 34.63164063 -27.7321875 35.26328125 -28.109375 35.9140625 C-37.39983649 51.26544411 -49.66780352 63.36600709 -63.9375 74.125 C-64.58887939 74.62346436 -65.24025879 75.12192871 -65.91137695 75.63549805 C-67.54950379 76.84024892 -69.27036573 77.93077154 -71 79 C-72.485 78.505 -72.485 78.505 -74 78 C-73.67386719 77.29617187 -73.34773438 76.59234375 -73.01171875 75.8671875 C-69.27833168 67.43127454 -66 58.33915421 -66 49 C-66.32871094 50.10214844 -66.65742188 51.20429687 -66.99609375 52.33984375 C-76.46650478 83.00204472 -76.46650478 83.00204472 -87.72265625 88.99609375 C-88.47417969 89.32738281 -89.22570312 89.65867187 -90 90 C-90.82371094 90.40347656 -91.64742187 90.80695313 -92.49609375 91.22265625 C-98.38029661 94 -98.38029661 94 -101 94 C-100.835 93.360625 -100.67 92.72125 -100.5 92.0625 C-99.39552863 85.29761284 -100.05210408 79.25260112 -101.48046875 72.59375 C-104.2388004 58.82283106 -102.47753222 47.94524015 -95 36 C-94.34 36 -93.68 36 -93 36 C-92.67 36.99 -92.34 37.98 -92 39 C-91.63648438 38.27554688 -91.27296875 37.55109375 -90.8984375 36.8046875 C-87.85797876 30.95765145 -85.0658197 26.25989384 -80 22 C-79.34 22 -78.68 22 -78 22 C-77.67 23.65 -77.34 25.3 -77 27 C-76.54625 26.175 -76.0925 25.35 -75.625 24.5 C-75.08875 23.675 -74.5525 22.85 -74 22 C-73.34 22 -72.68 22 -72 22 C-72 21.34 -72 20.68 -72 20 C-66.90885874 15.66711382 -62.56935936 13.99806593 -56 13 C-56 14.65 -56 16.3 -56 18 C-55.443125 17.71125 -54.88625 17.4225 -54.3125 17.125 C-48.87587404 14.48015494 -45.03305351 13.56123247 -39 14 C-38.505 14.99 -38.505 14.99 -38 16 C-37.18595703 15.45859375 -37.18595703 15.45859375 -36.35546875 14.90625 C-35.64003906 14.4421875 -34.92460937 13.978125 -34.1875 13.5 C-33.47980469 13.0359375 -32.77210938 12.571875 -32.04296875 12.09375 C-30 11 -30 11 -27 11 C-27.33 12.65 -27.66 14.3 -28 16 C-13.86540975 8.23358343 -13.86540975 8.23358343 0 0 Z M-10 20 C-10.33 20.66 -10.66 21.32 -11 22 C-10.01 21.67 -9.02 21.34 -8 21 C-8.66 20.67 -9.32 20.34 -10 20 Z M-26 31 C-25 33 -25 33 -25 33 Z " fill="#A6EBD6" transform="translate(221,11)"/>
<path d="M0 0 C4.29 0 8.58 0 13 0 C13.36649658 1.02432129 13.73299316 2.04864258 14.1105957 3.10400391 C15.5249432 7.05596144 16.9408661 11.00735323 18.35714722 14.95861816 C18.99259578 16.73214993 19.62762785 18.50583098 20.26223755 20.27966309 C23.59483591 29.59393839 26.94233086 38.90060687 30.4140625 48.1640625 C30.67420639 48.86097198 30.93435028 49.55788147 31.20237732 50.27590942 C32.41955361 53.53661657 33.64490605 56.79372569 34.88598633 60.04541016 C35.31419678 61.19058105 35.74240723 62.33575195 36.18359375 63.515625 C36.56056396 64.50852539 36.93753418 65.50142578 37.32592773 66.52441406 C38 69 38 69 37 72 C33.7 72 30.4 72 27 72 C23.9657193 65.38960275 21.50172292 58.87973803 19 52 C10.09 51.67 1.18 51.34 -8 51 C-8.99 54.3 -9.98 57.6 -11 61 C-11.67569245 62.86630915 -12.37564988 64.72452706 -13.125 66.5625 C-13.45757812 67.38878906 -13.79015625 68.21507813 -14.1328125 69.06640625 C-15 71 -15 71 -16 72 C-23.52238806 72.23880597 -23.52238806 72.23880597 -26 71 C-23.96313544 63.86250373 -21.57295363 56.92027766 -18.9453125 49.98046875 C-18.5618869 48.96003983 -18.1784613 47.9396109 -17.78341675 46.88825989 C-16.56704188 43.65349745 -15.34604943 40.42050037 -14.125 37.1875 C-13.31350854 35.03070938 -12.50230822 32.8738092 -11.69140625 30.71679688 C-7.83335607 20.46262996 -3.95279738 10.21806124 0 0 Z M5 14 C3.68151476 17.56031336 2.37127439 21.12360666 1.0625 24.6875 C0.50272461 26.19860352 0.50272461 26.19860352 -0.06835938 27.74023438 C-0.42607422 28.71669922 -0.78378906 29.69316406 -1.15234375 30.69921875 C-1.6472229 32.04246216 -1.6472229 32.04246216 -2.15209961 33.4128418 C-3.17567942 36.36262402 -3.17567942 36.36262402 -4 41 C2.27 41 8.54 41 15 41 C12.89398335 31.52292507 9.76068913 22.90881696 6 14 C5.67 14 5.34 14 5 14 Z " fill="#F7F7F7" transform="translate(442,27)"/>
<path d="M0 0 C3.3 0 6.6 0 10 0 C10.02312524 9.23997552 10.04091601 18.47994114 10.05181217 27.71993923 C10.05704061 32.00999915 10.06413753 36.30003933 10.07543945 40.59008789 C10.08626975 44.726794 10.09227714 48.86348108 10.09487724 53.00020027 C10.09673124 54.58192304 10.10035136 56.16364471 10.10573006 57.74535942 C10.1129424 59.95322838 10.11399086 62.16101773 10.11352539 64.36889648 C10.115746 65.62798325 10.11796661 66.88707001 10.12025452 68.18431091 C10 71 10 71 9 72 C5.625 72.25 5.625 72.25 2 72 C0.2734375 70.484375 0.2734375 70.484375 -1 69 C-2.11375 69.66 -3.2275 70.32 -4.375 71 C-10.53406503 74.06318101 -16.15585289 73.77129413 -22.6875 72 C-29.36404387 67.96887917 -33.51397239 62.31997018 -36 55 C-38.29032746 45.30643096 -37.69488447 35.82132517 -32.93359375 27.03125 C-30.19333242 22.76259208 -26.97531957 19.43731454 -22 18 C-13.24428041 16.99964099 -8.86693362 17.50460936 -1 22 C-0.67 14.74 -0.34 7.48 0 0 Z M-23 30 C-25.72219147 35.25847718 -26.5494167 39.54900602 -26.5 45.4375 C-26.49718018 46.18523682 -26.49436035 46.93297363 -26.49145508 47.70336914 C-26.32251824 53.45036157 -25.25376688 57.86605754 -21 62 C-16.94419469 64.70387021 -13.76057728 64.64288138 -9 64 C-5.06608009 62.17874078 -3.41676883 60.66683012 -1.125 57 C1.61106761 49.47176663 0.60154257 40.41439631 -2 33 C-4.22203068 29.63111478 -5.15667163 28.28110946 -9 27 C-14.2663281 26.48717404 -18.90271735 26.26424229 -23 30 Z " fill="#F5F5F5" transform="translate(400,27)"/>
<path d="M0 0 C3.96 0 7.92 0 12 0 C18.27 18.81 24.54 37.62 31 57 C32.835625 51.493125 34.67125 45.98625 36.5625 40.3125 C41.04166667 26.875 45.52083333 13.4375 50 0 C53.96 0 57.92 0 62 0 C60.68001383 6.5341986 58.85987917 12.62387001 56.55078125 18.87109375 C56.21507614 19.79229507 55.87937103 20.7134964 55.53349304 21.66261292 C54.82420568 23.60571293 54.11223097 25.54783388 53.39770508 27.48901367 C52.32770388 30.39619128 51.2656237 33.3061583 50.20507812 36.21679688 C46.89125096 45.28854951 43.52355521 54.33845445 40.04296875 63.34765625 C39.74957108 64.1108165 39.4561734 64.87397675 39.15388489 65.66026306 C37.12079926 70.87920074 37.12079926 70.87920074 36 72 C34.31391034 72.07205511 32.62499341 72.08386068 30.9375 72.0625 C29.55884766 72.04896484 29.55884766 72.04896484 28.15234375 72.03515625 C27.08693359 72.01775391 27.08693359 72.01775391 26 72 C23.03253031 66.34305887 20.71999105 60.73645215 18.6875 54.6875 C18.07683701 52.9071001 17.46482501 51.12716241 16.8515625 49.34765625 C16.54379883 48.45320801 16.23603516 47.55875977 15.91894531 46.63720703 C14.51715838 42.61433179 13.0445899 38.61885561 11.5625 34.625 C11.28164551 33.86533936 11.00079102 33.10567871 10.71142578 32.32299805 C9.44815943 28.90677606 8.18258054 25.49142407 6.9140625 22.07714844 C5.79225958 19.05311591 4.67693032 16.02675612 3.5625 13 C3.20808838 12.04947754 2.85367676 11.09895508 2.48852539 10.11962891 C2.16360107 9.23452637 1.83867676 8.34942383 1.50390625 7.4375 C1.06800171 6.25994141 1.06800171 6.25994141 0.62329102 5.05859375 C0 3 0 3 0 0 Z " fill="#F5F5F5" transform="translate(242,27)"/>
<path d="M0 0 C7.11322739 4.18979871 9.6433264 10.3521994 11.796875 18.015625 C12.3125 21.08984375 12.3125 21.08984375 12.3125 30.08984375 C0.1025 30.08984375 -12.1075 30.08984375 -24.6875 30.08984375 C-23.46669341 38.19018761 -23.46669341 38.19018761 -18.59375 43.28515625 C-13.63313327 45.37918708 -8.31072806 44.40869212 -3.1875 43.40234375 C-0.48958333 42.28776042 -0.48958333 42.28776042 0.625 39.58984375 C0.851875 38.76484375 1.07875 37.93984375 1.3125 37.08984375 C1.8075 36.09984375 1.8075 36.09984375 2.3125 35.08984375 C5.2825 35.08984375 8.2525 35.08984375 11.3125 35.08984375 C10.69022565 41.62372443 8.12865006 45.35265674 3.4375 49.83984375 C-3.11498947 54.55763617 -9.79870299 55.02378194 -17.6875 54.08984375 C-24.67814991 52.07293355 -28.9275072 48.5964133 -32.5703125 42.33984375 C-37.01456299 33.38918542 -36.80508495 23.44259861 -33.6875 14.08984375 C-27.43952491 0.66826763 -14.18960373 -4.8054908 0 0 Z M-21.6875 12.08984375 C-24.03262613 15.84204556 -24.6875 17.6194623 -24.6875 22.08984375 C-15.7775 22.08984375 -6.8675 22.08984375 2.3125 22.08984375 C1.3729519 16.45255513 0.72641148 14.38161818 -2.6875 10.08984375 C-9.11104594 6.13067707 -16.1801751 7.10702598 -21.6875 12.08984375 Z " fill="#F5F5F5" transform="translate(344.6875,45.91015625)"/>
<path d="M0 0 C-0.01160156 0.63808594 -0.02320313 1.27617188 -0.03515625 1.93359375 C-0.04417969 2.75988281 -0.05320313 3.58617188 -0.0625 4.4375 C-0.07410156 5.26121094 -0.08570313 6.08492188 -0.09765625 6.93359375 C-0.23267348 8.99163938 -0.23267348 8.99163938 1 10 C0.64998321 14.31687378 -0.77686187 16.19275066 -4 19 C-3.01 19.66 -2.02 20.32 -1 21 C-8.05470852 30.38923767 -8.05470852 30.38923767 -12.82421875 31.88671875 C-15.25879366 32.09857192 -17.56395752 32.17291324 -20 32 C-20 32.66 -20 33.32 -20 34 C-21.65 34 -23.3 34 -25 34 C-25 35.65 -25 37.3 -25 39 C-35.52523481 41.89473227 -47.08036538 40.87687013 -56.91015625 36.38671875 C-59 35 -59 35 -60 32 C-57.69 31.34 -55.38 30.68 -53 30 C-53.33 28.02 -53.66 26.04 -54 24 C-49.25 21 -49.25 21 -47 21 C-47 20.34 -47 19.68 -47 19 C-45.36395804 17.62926214 -43.69321939 16.29944744 -42 15 C-41.56171875 14.47535156 -41.1234375 13.95070313 -40.671875 13.41015625 C-38.33535998 11.43940409 -36.58985275 11.52777477 -33.5625 11.375 C-32.50289062 11.30796875 -31.44328125 11.2409375 -30.3515625 11.171875 C-27 11 -27 11 -23.6484375 10.828125 C-22.58882812 10.76109375 -21.52921875 10.6940625 -20.4375 10.625 C-18.98150391 10.55152344 -18.98150391 10.55152344 -17.49609375 10.4765625 C-14.64497461 9.93221737 -13.88465285 9.10874267 -12 7 C-10.65938457 7.30271961 -9.32594105 7.63837971 -8 8 C-5.78228936 7.14209817 -5.78228936 7.14209817 -4 6 C-4 4.35 -4 2.7 -4 1 C-2 0 -2 0 0 0 Z " fill="#A4EBD5" transform="translate(203,73)"/>
<path d="M0 0 C1.64574566 -0.02688151 3.29161413 -0.04634123 4.9375 -0.0625 C5.85402344 -0.07410156 6.77054687 -0.08570312 7.71484375 -0.09765625 C10 0 10 0 11 1 C11.09956278 3.1726268 11.12799719 5.34853106 11.12939453 7.5234375 C11.13114685 8.20472717 11.13289917 8.88601685 11.13470459 9.58795166 C11.13912242 11.85032667 11.13618538 14.11262413 11.1328125 16.375 C11.13348556 17.9405926 11.1344556 19.5061851 11.13571167 21.07177734 C11.13718855 24.35710645 11.13503441 27.64240842 11.13037109 30.92773438 C11.1246738 35.14820516 11.12795286 39.36861236 11.13394356 43.58908081 C11.13754944 46.82316572 11.13641046 50.05723545 11.13381577 53.2913208 C11.13314657 54.84792081 11.13397466 56.40452218 11.13629532 57.96112061 C11.1388223 60.13297196 11.13498065 62.30471896 11.12939453 64.4765625 C11.12820114 66.334021 11.12820114 66.334021 11.12698364 68.22900391 C11 71 11 71 10 72 C8.50261876 72.0979057 7.00057108 72.12974864 5.5 72.125 C4.6853125 72.12757812 3.870625 72.13015625 3.03125 72.1328125 C1 72 1 72 0 71 C-0.09432985 68.79132169 -0.11742431 66.57958479 -0.11352539 64.36889648 C-0.11367142 63.67624695 -0.11381744 62.98359741 -0.1139679 62.2699585 C-0.11326874 59.97030554 -0.10547628 57.67073263 -0.09765625 55.37109375 C-0.09579208 53.78068588 -0.09436817 52.19027743 -0.09336853 50.59986877 C-0.08954329 46.4060407 -0.07971295 42.21224705 -0.06866455 38.01843262 C-0.05845057 33.74211086 -0.05387094 29.46578356 -0.04882812 25.18945312 C-0.03809069 16.79295292 -0.02101419 8.39648074 0 0 Z " fill="#F8F8F8" transform="translate(489,27)"/>
<path d="M0 0 C0 3.86695678 -1.41909971 6.5088452 -3 10 C-3.66 10 -4.32 10 -5 10 C-5 10.66 -5 11.32 -5 12 C-5.99 12.33 -6.98 12.66 -8 13 C-2.39 13 3.22 13 9 13 C8.67 14.32 8.34 15.64 8 17 C7.13375 17.144375 6.2675 17.28875 5.375 17.4375 C3.3292552 17.77845747 1.28631451 18.13787106 -0.75 18.53125 C-4.33624279 19.04849656 -7.75325553 19.0966674 -11.375 19.0625 C-13.24285156 19.04896484 -13.24285156 19.04896484 -15.1484375 19.03515625 C-16.55996094 19.01775391 -16.55996094 19.01775391 -18 19 C-18.495 20.485 -18.495 20.485 -19 22 C-20.33333333 22.33333333 -21.66666667 22.66666667 -23 23 C-23.495 24.485 -23.495 24.485 -24 26 C-24.66 26 -25.32 26 -26 26 C-26 26.66 -26 27.32 -26 28 C-27.4540625 28.680625 -27.4540625 28.680625 -28.9375 29.375 C-32.07079582 30.65786221 -32.07079582 30.65786221 -33 33 C-32.34 33.33 -31.68 33.66 -31 34 C-32 37 -32 37 -35.0625 38.6875 C-36.031875 39.120625 -37.00125 39.55375 -38 40 C-38 40.66 -38 41.32 -38 42 C-37.30132812 42.20496094 -36.60265625 42.40992188 -35.8828125 42.62109375 C-34.97273438 42.89050781 -34.06265625 43.15992188 -33.125 43.4375 C-32.22007812 43.70433594 -31.31515625 43.97117188 -30.3828125 44.24609375 C-28 45 -28 45 -26 46 C-24.40552536 46.08400529 -22.80759455 46.10727467 -21.2109375 46.09765625 C-19.79941406 46.09282227 -19.79941406 46.09282227 -18.359375 46.08789062 C-17.37453125 46.07951172 -16.3896875 46.07113281 -15.375 46.0625 C-14.38242188 46.05798828 -13.38984375 46.05347656 -12.3671875 46.04882812 C-9.9113984 46.03702145 -7.45572896 46.020554 -5 46 C-4.67 44.35 -4.34 42.7 -4 41 C-2.35 41 -0.7 41 1 41 C1 40.34 1 39.68 1 39 C5.455 38.505 5.455 38.505 10 38 C6.58983503 40.86453858 3.09305456 42.34703566 -1 44 C-1 44.99 -1 45.98 -1 47 C-12.42466514 51.40640273 -23.57230639 49.67748413 -34.58496094 45.21826172 C-42.26057655 42.2340938 -49.84130619 42.02042226 -58 42 C-55.29545643 39.87042605 -52.62997127 38.20444815 -49.54296875 36.6875 C-48.68550049 36.25679199 -47.82803223 35.82608398 -46.94458008 35.38232422 C-46.03474365 34.92615723 -45.12490723 34.46999023 -44.1875 34 C-37.27156744 30.5115944 -31.25382668 26.82939261 -25.3125 21.875 C-17.56207336 15.53916172 -9.69114253 15.5226585 0 16 C-5.94 15.01 -5.94 15.01 -12 14 C-10.12233711 10.24467421 -8.72792462 8.82755325 -5.53125 6.3046875 C-3.3577138 4.45274594 -1.697011 2.28443789 0 0 Z " fill="#B3DFD2" transform="translate(182,66)"/>
<path d="M0 0 C2.26598448 3.39897673 2.23742654 4.56319173 2.1953125 8.54296875 C2.18564453 10.15268555 2.18564453 10.15268555 2.17578125 11.79492188 C2.15902344 12.91447266 2.14226562 14.03402344 2.125 15.1875 C2.11597656 16.31865234 2.10695312 17.44980469 2.09765625 18.61523438 C2.07406862 21.41036828 2.041153 24.20507845 2 27 C2.66 27 3.32 27 4 27 C4.12375 27.8971875 4.12375 27.8971875 4.25 28.8125 C5.20630014 31.60170874 6.62860019 32.34476293 9 34 C7.41728767 35.27160666 5.83380365 36.54225285 4.25 37.8125 C3.36828125 38.52019531 2.4865625 39.22789063 1.578125 39.95703125 C0.30195313 40.96830078 0.30195313 40.96830078 -1 42 C-1.70640625 42.60199219 -2.4128125 43.20398438 -3.140625 43.82421875 C-4.06101563 44.40623047 -4.06101563 44.40623047 -5 45 C-5.99 44.67 -6.98 44.34 -8 44 C-7.67386719 43.29617187 -7.34773437 42.59234375 -7.01171875 41.8671875 C-3.27833168 33.43127454 0 24.33915421 0 15 C-0.66 16.98 -1.32 18.96 -2 21 C-2.99 21 -3.98 21 -5 21 C-4.690625 20.401875 -4.38125 19.80375 -4.0625 19.1875 C-1.66260473 14.24653914 -1.99704592 10.09748474 -2.16015625 4.71484375 C-2 2 -2 2 0 0 Z " fill="#ACE8D6" transform="translate(155,45)"/>
<path d="M0 0 C0 0.66 0 1.32 0 2 C0.33 2.99 0.66 3.98 1 5 C-0.40445835 7.2636564 -2.1967913 9.0208685 -4 11 C-3.01 11.66 -2.02 12.32 -1 13 C-3.97 16.3 -6.94 19.6 -10 23 C-10.33 21.68 -10.66 20.36 -11 19 C-10.01 19 -9.02 19 -8 19 C-7.79859524 15.37471432 -8.14223235 13.13498292 -10 10 C-9.01 9.67 -8.02 9.34 -7 9 C-7 6.36 -7 3.72 -7 1 C-4.53721199 -0.231394 -2.7204945 -0.07159196 0 0 Z " fill="#ABE7D5" transform="translate(203,81)"/>
<path d="M0 0 C-3.41016497 2.86453858 -6.90694544 4.34703566 -11 6 C-11 6.99 -11 7.98 -11 9 C-22.26700091 13.35915168 -33.72840251 11.88678355 -44.52905273 7.13476562 C-46.0293837 6.4445437 -47.51644626 5.72558087 -49 5 C-46 4 -46 4 -44.2578125 4.77734375 C-43.55398437 5.16019531 -42.85015625 5.54304688 -42.125 5.9375 C-33.73524336 9.59231913 -23.9581299 8.32143442 -15 8 C-14.67 6.35 -14.34 4.7 -14 3 C-12.35 3 -10.7 3 -9 3 C-9 2.34 -9 1.68 -9 1 C-5.8035914 -0.06546953 -3.34252724 -0.07427838 0 0 Z " fill="#BBD9CF" transform="translate(192,104)"/>
<path d="M0 0 C0 1.65 0 3.3 0 5 C1.32 4.67 2.64 4.34 4 4 C2.75 5.5625 2.75 5.5625 1 7 C-1.1875 6.6875 -1.1875 6.6875 -3 6 C-3 5.34 -3 4.68 -3 4 C-6.18916928 4.0759326 -8.30959372 4.34038648 -10.6640625 6.58984375 C-11.70286626 7.84101379 -12.71725569 9.11295907 -13.703125 10.40625 C-15 12 -15 12 -17 13 C-17.72159424 14.64363134 -18.39351421 16.31050386 -19 18 C-20.32 18 -21.64 18 -23 18 C-23 17.34 -23 16.68 -23 16 C-22.34 16 -21.68 16 -21 16 C-20.690625 15.21625 -20.38125 14.4325 -20.0625 13.625 C-19 11 -19 11 -18 9 C-17.34 9 -16.68 9 -16 9 C-16 8.34 -16 7.68 -16 7 C-11.48240507 2.82991238 -6.23097328 0 0 0 Z " fill="#BEDED4" transform="translate(165,24)"/>
<path d="M0 0 C2.27531766 3.41297648 2.25674679 4.68130905 2.265625 8.69140625 C2.26820313 9.80064453 2.27078125 10.90988281 2.2734375 12.05273438 C2.26570312 13.21095703 2.25796875 14.36917969 2.25 15.5625 C2.25773438 16.72458984 2.26546875 17.88667969 2.2734375 19.08398438 C2.26957031 20.7459082 2.26957031 20.7459082 2.265625 22.44140625 C2.26224121 23.96809937 2.26224121 23.96809937 2.25878906 25.52563477 C2 28 2 28 0 30 C-0.66 30.99 -1.32 31.98 -2 33 C-1.7834375 31.329375 -1.7834375 31.329375 -1.5625 29.625 C-0.95203629 24.75873212 -0.47014775 19.88153414 0 15 C-0.66 16.98 -1.32 18.96 -2 21 C-2.99 21 -3.98 21 -5 21 C-4.690625 20.401875 -4.38125 19.80375 -4.0625 19.1875 C-1.66260473 14.24653914 -1.99704592 10.09748474 -2.16015625 4.71484375 C-2 2 -2 2 0 0 Z " fill="#B7D5CD" transform="translate(155,45)"/>
<path d="M0 0 C0.99 0.99 1.98 1.98 3 3 C2.54109375 3.61746094 2.0821875 4.23492187 1.609375 4.87109375 C-2.3661755 10.35835568 -5.5428565 15.68163101 -8 22 C-9.4049404 18.10939581 -8.69513239 14.76907638 -8.0625 10.75 C-7.86785156 9.48671875 -7.67320312 8.2234375 -7.47265625 6.921875 C-7.23869141 5.47554687 -7.23869141 5.47554687 -7 4 C-6.030625 3.71125 -5.06125 3.4225 -4.0625 3.125 C-0.89335797 2.35785318 -0.89335797 2.35785318 0 0 Z " fill="#BFE1D7" transform="translate(213,30)"/>
<path d="M0 0 C0.66 0.66 1.32 1.32 2 2 C1.0936096 3.92154764 0.17443196 5.83706654 -0.75 7.75 C-1.26046875 8.81734375 -1.7709375 9.8846875 -2.296875 10.984375 C-3.92485639 13.86694755 -5.54844908 15.80426309 -8 18 C-8.26252625 13.66831683 -7.29243536 10.1196377 -6 6 C-7.32 6.33 -8.64 6.66 -10 7 C-7.2180632 3.72713318 -3.72045933 2.03572303 0 0 Z " fill="#B9DFD4" transform="translate(221,11)"/>
<path d="M0 0 C2.09113557 5.77485783 -0.82692062 11.59365966 -3 17 C-5.3491873 21.52996974 -8.15157444 25.77051962 -11 30 C-11.66 30.99 -12.32 31.98 -13 33 C-13.66 32.67 -14.32 32.34 -15 32 C-14.37351563 31.05898437 -13.74703125 30.11796875 -13.1015625 29.1484375 C-12.2756886 27.89085679 -11.45018748 26.63303122 -10.625 25.375 C-10.2125 24.75753906 -9.8 24.14007813 -9.375 23.50390625 C-6.9524994 19.79201017 -5.06159777 16.3615041 -4 12 C-4.33 11.34 -4.66 10.68 -5 10 C-4.39239518 7.6505947 -3.72870472 5.31470912 -3 3 C-2.34 3 -1.68 3 -1 3 C-0.67 2.01 -0.34 1.02 0 0 Z M-3 9 C-2 11 -2 11 -2 11 Z " fill="#C0D7D0" transform="translate(198,33)"/>
<path d="M0 0 C0.33 0.66 0.66 1.32 1 2 C0.00390625 4.3828125 0.00390625 4.3828125 -1.4375 7.125 C-1.91058594 8.03507812 -2.38367188 8.94515625 -2.87109375 9.8828125 C-3.24363281 10.58148438 -3.61617187 11.28015625 -4 12 C-5.32 11.67 -6.64 11.34 -8 11 C-8.103125 11.639375 -8.20625 12.27875 -8.3125 12.9375 C-8.539375 13.618125 -8.76625 14.29875 -9 15 C-9.99 15.33 -10.98 15.66 -12 16 C-11.67 16.99 -11.34 17.98 -11 19 C-11.66 19 -12.32 19 -13 19 C-13.33 19.99 -13.66 20.98 -14 22 C-13.59683075 15.68368172 -11.28767869 11.35006016 -8 6 C-7.34 6 -6.68 6 -6 6 C-5.67 6.99 -5.34 7.98 -5 9 C-3.35 6.03 -1.7 3.06 0 0 Z " fill="#BCDAD1" transform="translate(134,41)"/>
<path d="M0 0 C-1.42976279 7.5693324 -3.06262906 13.67683984 -9 19 C-9 17.68 -9 16.36 -9 15 C-8.34 15 -7.68 15 -7 15 C-6.67 13.68 -6.34 12.36 -6 11 C-5.34 11 -4.68 11 -4 11 C-4 9.35 -4 7.7 -4 6 C-5.32 5.67 -6.64 5.34 -8 5 C-5.81209839 1.71814759 -4.05191042 0 0 0 Z " fill="#C0E3D8" transform="translate(212,62)"/>
<path d="M0 0 C0.33 0 0.66 0 1 0 C1 2.97 1 5.94 1 9 C1.66 8.67 2.32 8.34 3 8 C4.54023996 7.93049459 6.08334988 7.91547643 7.625 7.9375 C8.85089844 7.95103516 8.85089844 7.95103516 10.1015625 7.96484375 C11.04128906 7.98224609 11.04128906 7.98224609 12 8 C9.725306 10.55263088 7.56797307 11.84144815 4.4375 13.1875 C3.65246094 13.53167969 2.86742188 13.87585938 2.05859375 14.23046875 C0 15 0 15 -2 15 C-1.34 10.05 -0.68 5.1 0 0 Z " fill="#B8DBD0" transform="translate(122,90)"/>
<path d="M0 0 C0.66 0.33 1.32 0.66 2 1 C-2.30769231 5.92307692 -2.30769231 5.92307692 -5.8125 6.3125 C-6.8953125 6.1578125 -6.8953125 6.1578125 -8 6 C-8.33 6.99 -8.66 7.98 -9 9 C-10.84765625 9.73046875 -10.84765625 9.73046875 -13.0625 10.1875 C-13.79597656 10.34605469 -14.52945313 10.50460938 -15.28515625 10.66796875 C-15.85105469 10.77753906 -16.41695312 10.88710938 -17 11 C-17 9.35 -17 7.7 -17 6 C-18.32 6.33 -19.64 6.66 -21 7 C-19.6875 5.5 -19.6875 5.5 -18 4 C-17.01 4 -16.02 4 -15 4 C-15.33 5.65 -15.66 7.3 -16 9 C-14.86820313 8.33871094 -13.73640625 7.67742188 -12.5703125 6.99609375 C-11.08878397 6.14280833 -9.60699984 5.28996658 -8.125 4.4375 C-7.37863281 3.99986328 -6.63226563 3.56222656 -5.86328125 3.11132812 C-5.14785156 2.70205078 -4.43242187 2.29277344 -3.6953125 1.87109375 C-3.03547363 1.48880615 -2.37563477 1.10651855 -1.69580078 0.71264648 C-1.13618652 0.47747314 -0.57657227 0.2422998 0 0 Z " fill="#C0DDD4" transform="translate(209,18)"/>
<path d="M0 0 C2 1 2 1 2.8515625 3.28515625 C3.10679687 4.20167969 3.36203125 5.11820312 3.625 6.0625 C3.88539063 6.98160156 4.14578125 7.90070313 4.4140625 8.84765625 C4.60742188 9.55792969 4.80078125 10.26820312 5 11 C4 12 4 12 1.71484375 12.09765625 C0.34005859 12.08025391 0.34005859 12.08025391 -1.0625 12.0625 C-1.98160156 12.05347656 -2.90070313 12.04445313 -3.84765625 12.03515625 C-4.55792969 12.02355469 -5.26820313 12.01195313 -6 12 C-7.5625 9.1875 -7.5625 9.1875 -9 6 C-8.67 5.01 -8.34 4.02 -8 3 C-7.34 5.31 -6.68 7.62 -6 10 C-3.03 10 -0.06 10 3 10 C2.01 6.7 1.02 3.4 0 0 Z " fill="#E4E4E4" transform="translate(475,87)"/>
<path d="M0 0 C1 3 1 3 0 7 C5.94 7.33 11.88 7.66 18 8 C17.67 6.02 17.34 4.04 17 2 C19.35953094 4.35953094 19.49141413 5.77895617 20 9 C17.49899426 10.25050287 15.99656948 10.02993449 13.2109375 9.87890625 C12.26992188 9.83056641 11.32890625 9.78222656 10.359375 9.73242188 C9.37453125 9.67634766 8.3896875 9.62027344 7.375 9.5625 C6.38242187 9.51029297 5.38984375 9.45808594 4.3671875 9.40429688 C1.91119532 9.27441267 -0.54444112 9.13783362 -3 9 C-2.01 6.03 -1.02 3.06 0 0 Z " fill="#E3E3E3" transform="translate(439,60)"/>
<path d="M0 0 C-0.71428571 8.57142857 -0.71428571 8.57142857 -4 12 C-4 10.02 -4 8.04 -4 6 C-4.66 6 -5.32 6 -6 6 C-6 5.34 -6 4.68 -6 4 C-6.66 3.67 -7.32 3.34 -8 3 C-2.25 0 -2.25 0 0 0 Z " fill="#C1DFD6" transform="translate(211,50)"/>
<path d="M0 0 C1 3 1 3 0.37915039 4.80932617 C0.03875732 5.46392822 -0.30163574 6.11853027 -0.65234375 6.79296875 C-1.01650391 7.50517578 -1.38066406 8.21738281 -1.75585938 8.95117188 C-2.14580078 9.68916016 -2.53574219 10.42714844 -2.9375 11.1875 C-3.51661133 12.31188477 -3.51661133 12.31188477 -4.10742188 13.45898438 C-5.06271757 15.31060689 -6.03021577 17.15592452 -7 19 C-7.66 18.67 -8.32 18.34 -9 18 C-9 17.34 -9 16.68 -9 16 C-8.34 15.67 -7.68 15.34 -7 15 C-7 13.68 -7 12.36 -7 11 C-6.01 11 -5.02 11 -4 11 C-3.896875 9.741875 -3.79375 8.48375 -3.6875 7.1875 C-3.35141192 4.39500343 -3.19974124 3.25566879 -1.4375 1 C-0.963125 0.67 -0.48875 0.34 0 0 Z " fill="#BCDCD2" transform="translate(150,70)"/>
<path d="M0 0 C-2.97 3.3 -5.94 6.6 -9 10 C-9.33 8.68 -9.66 7.36 -10 6 C-9.01 6 -8.02 6 -7 6 C-7 4.02 -7 2.04 -7 0 C-4 -1 -4 -1 0 0 Z " fill="#BCDCD3" transform="translate(202,94)"/>
<path d="M0 0 C0.66 0 1.32 0 2 0 C2.53190541 1.43344 3.05015258 2.87195367 3.5625 4.3125 C3.85253906 5.11300781 4.14257812 5.91351563 4.44140625 6.73828125 C5 9 5 9 4 12 C3.01 9.69 2.02 7.38 1 5 C-0.32 7.64 -1.64 10.28 -3 13 C-4.23593891 9.29218328 -3.5678132 8.32489747 -2.0625 4.8125 C-1.68222656 3.91144531 -1.30195313 3.01039062 -0.91015625 2.08203125 C-0.60980469 1.39496094 -0.30945313 0.70789062 0 0 Z " fill="#DEDEDE" transform="translate(447,38)"/>
<path d="M0 0 C1.65 0 3.3 0 5 0 C5 0.66 5 1.32 5 2 C5.33 2.99 5.66 3.98 6 5 C4.68 6.32 3.36 7.64 2 9 C0.50178941 5.62902617 0 3.79557881 0 0 Z " fill="#BFDFD5" transform="translate(198,81)"/>
<path d="M0 0 C-4.44404597 3.62107449 -8.21434368 5.33060893 -14 5 C-14 4.34 -14 3.68 -14 3 C-12.35 3 -10.7 3 -9 3 C-9 2.34 -9 1.68 -9 1 C-5.8035914 -0.06546953 -3.34252724 -0.07427838 0 0 Z " fill="#C3E1D8" transform="translate(192,104)"/>
<path d="M0 0 C1.24546405 2.49092811 0.7767578 3.41080733 0 6 C0.99 6.33 1.98 6.66 3 7 C0.6875 9.0625 0.6875 9.0625 -2 11 C-2.99 10.67 -3.98 10.34 -5 10 C-3.35 6.7 -1.7 3.4 0 0 Z " fill="#C1DAD3" transform="translate(152,79)"/>
<path d="M0 0 C0.66 0 1.32 0 2 0 C2 1.98 2 3.96 2 6 C4.31 6 6.62 6 9 6 C9 6.66 9 7.32 9 8 C5.6875 8.3125 5.6875 8.3125 2 8 C0 5.6875 0 5.6875 -1 3 C-0.67 2.01 -0.34 1.02 0 0 Z " fill="#E8E8E8" transform="translate(400,91)"/>
<path d="M0 0 C1.8871875 0.0309375 1.8871875 0.0309375 3.8125 0.0625 C3.8125 1.3825 3.8125 2.7025 3.8125 4.0625 C2.4925 4.0625 1.1725 4.0625 -0.1875 4.0625 C-0.1875 3.4025 -0.1875 2.7425 -0.1875 2.0625 C-2.8275 2.3925 -5.4675 2.7225 -8.1875 3.0625 C-6.45706736 -0.39836529 -3.47359009 -0.0569441 0 0 Z " fill="#BEDBD2" transform="translate(178.1875,24.9375)"/>
<path d="M0 0 C0.66 0.66 1.32 1.32 2 2 C0.35 5.3 -1.3 8.6 -3 12 C-3.96733056 8.13067777 -4.13168095 6.6779631 -3 3 C-1.4375 1.1875 -1.4375 1.1875 0 0 Z " fill="#C8E3DA" transform="translate(221,11)"/>
<path d="M0 0 C4.95 0 9.9 0 15 0 C14.67 0.99 14.34 1.98 14 3 C10.71023192 4.09658936 9.28696233 3.79953138 6 3 C6 2.67 6 2.34 6 2 C3.03 1.505 3.03 1.505 0 1 C0 0.67 0 0.34 0 0 Z " fill="#CEE0DB" transform="translate(176,80)"/>
<path d="M0 0 C2.44897847 3.67346771 2.31537716 5.66356399 2 10 C1.34 10.66 0.68 11.32 0 12 C-0.66 12.99 -1.32 13.98 -2 15 C-1.38487182 9.99109914 -0.7282448 4.99367864 0 0 Z " fill="#BFDDD4" transform="translate(155,63)"/>
<path d="M0 0 C0.66 0 1.32 0 2 0 C2.08333357 4.8333472 1.95261487 9.23692563 1 14 C0.67 14 0.34 14 0 14 C-0.77916092 8.97874074 -1.13016601 5.02296004 0 0 Z " fill="#B2D7CB" transform="translate(119,64)"/>
<path d="M0 0 C0.99 0 1.98 0 3 0 C1.52307692 5.66153846 1.52307692 5.66153846 -1.125 7.375 C-2.053125 7.684375 -2.053125 7.684375 -3 8 C-2.67 6.68 -2.34 5.36 -2 4 C-1.34 4 -0.68 4 0 4 C0 2.68 0 1.36 0 0 Z " fill="#BADDD3" transform="translate(139,89)"/>
<path d="M0 0 C0 1.32 0 2.64 0 4 C-2.97 4 -5.94 4 -9 4 C-5.8155864 0.8155864 -4.35822804 0 0 0 Z " fill="#B1E4D5" transform="translate(192,24)"/>
<path d="M0 0 C-0.25561323 2.3431213 -0.59270772 4.67843403 -1 7 C-1.99 7.495 -1.99 7.495 -3 8 C-3.12375 7.360625 -3.2475 6.72125 -3.375 6.0625 C-3.684375 5.0415625 -3.684375 5.0415625 -4 4 C-4.66 3.67 -5.32 3.34 -6 3 C-2.25 0 -2.25 0 0 0 Z " fill="#C7D8D2" transform="translate(212,62)"/>
<path d="M0 0 C1.10844919 3.32534757 0.84454356 5.62182575 0 9 C-0.99 8.67 -1.98 8.34 -3 8 C-3 6.35 -3 4.7 -3 3 C-2.34 3 -1.68 3 -1 3 C-0.67 2.01 -0.34 1.02 0 0 Z " fill="#ADD0C6" transform="translate(198,33)"/>
<path d="M0 0 C2.625 0.9375 2.625 0.9375 5 2 C5 2.33 5 2.66 5 3 C1.37 3.33 -2.26 3.66 -6 4 C-2 1 -2 1 0 0 Z " fill="#BED0CB" transform="translate(130,104)"/>
<path d="M0 0 C0.99 0 1.98 0 3 0 C1.375 5.75 1.375 5.75 -2 8 C-2.33 6.68 -2.66 5.36 -3 4 C-2.01 4 -1.02 4 0 4 C0 2.68 0 1.36 0 0 Z " fill="#ADDDCE" transform="translate(204,61)"/>
<path d="M0 0 C0.33 0 0.66 0 1 0 C0.67 2.31 0.34 4.62 0 7 C-1.32 7 -2.64 7 -4 7 C-4 6.34 -4 5.68 -4 5 C-3.34 5 -2.68 5 -2 5 C-1.34 3.35 -0.68 1.7 0 0 Z " fill="#AFDCCF" transform="translate(146,35)"/>
<path d="M0 0 C-0.33 1.98 -0.66 3.96 -1 6 C-1.66 5.34 -2.32 4.68 -3 4 C-3.99 4.99 -4.98 5.98 -6 7 C-6.66 6.67 -7.32 6.34 -8 6 C-7.0479279 4.99403703 -6.08812654 3.99538437 -5.125 3 C-4.59132812 2.443125 -4.05765625 1.88625 -3.5078125 1.3125 C-2 0 -2 0 0 0 Z " fill="#BED5CD" transform="translate(143,33)"/>
<path d="M0 0 C2.0625 0.4375 2.0625 0.4375 4 1 C1.03 3.475 1.03 3.475 -2 6 C-1.125 1.125 -1.125 1.125 0 0 Z " fill="#B3DDD1" transform="translate(179,60)"/>
<path d="M0 0 C-0.33 1.65 -0.66 3.3 -1 5 C-0.34 5.33 0.32 5.66 1 6 C0.01 6.33 -0.98 6.66 -2 7 C-2 5.35 -2 3.7 -2 2 C-3.32 2.33 -4.64 2.66 -6 3 C-3.375 0 -3.375 0 0 0 Z " fill="#BBD0CA" transform="translate(194,22)"/>
<path d="" fill="#FEFEFE" transform="translate(0,0)"/>
<path d="" fill="#FEFEFE" transform="translate(0,0)"/>
<path d="" fill="#FEFEFE" transform="translate(0,0)"/>
<path d="" fill="#FEFEFE" transform="translate(0,0)"/>
<path d="" fill="#FEFEFE" transform="translate(0,0)"/>
<path d="" fill="#FEFEFE" transform="translate(0,0)"/>
<path d="" fill="#FEFEFE" transform="translate(0,0)"/>
<path d="" fill="#FEFEFE" transform="translate(0,0)"/>
<path d="" fill="#FEFEFE" transform="translate(0,0)"/>
<path d="" fill="#FEFEFE" transform="translate(0,0)"/>
<path d="" fill="#FEFEFE" transform="translate(0,0)"/>
<path d="" fill="#FEFEFE" transform="translate(0,0)"/>
<path d="" fill="#FEFEFE" transform="translate(0,0)"/>
<path d="" fill="#FEFEFE" transform="translate(0,0)"/>
<path d="" fill="#FEFEFE" transform="translate(0,0)"/>
<path d="" fill="#FEFEFE" transform="translate(0,0)"/>
<path d="" fill="#FEFEFE" transform="translate(0,0)"/>
<path d="" fill="#FEFEFE" transform="translate(0,0)"/>
<path d="" fill="#FEFEFE" transform="translate(0,0)"/>
<path d="" fill="#FEFEFE" transform="translate(0,0)"/>
<path d="" fill="#FEFEFE" transform="translate(0,0)"/>
<path d="" fill="#FEFEFE" transform="translate(0,0)"/>
<path d="" fill="#FEFEFE" transform="translate(0,0)"/>
<path d="" fill="#FEFEFE" transform="translate(0,0)"/>
</svg>
